/* XPM */
static char *fdf44e3e3f2a47a8e43044c3a45ebb7d2K97gNQuCY9snczC[] = {
/* columns rows colors chars-per-pixel */
"64 64 239 2 ",
"   c #4E0F03",
".  c #550F05",
"X  c #4D120D",
"o  c #4B1302",
"O  c #541204",
"+  c #5B1305",
"@  c #53120A",
"#  c #5B170D",
"$  c #631C0C",
"%  c #621808",
"&  c #641711",
"*  c #4D2608",
"=  c #522205",
"-  c #54230A",
";  c #5A230C",
":  c #5B2908",
">  c #5B2010",
",  c #6E2502",
"<  c #6C2903",
"1  c #63250C",
"2  c #64290B",
"3  c #612905",
"4  c #742602",
"5  c #7B2603",
"6  c #742A02",
"7  c #7A2B04",
"8  c #72250A",
"9  c #722909",
"0  c #7A2D09",
"q  c #7B270A",
"w  c #6A3207",
"e  c #7D3302",
"r  c #7E3508",
"t  c #662817",
"y  c #722C19",
"u  c #683718",
"i  c #7E3B15",
"p  c #5D2C23",
"a  c #5E3F20",
"s  c #632B23",
"d  c #692D24",
"f  c #642E29",
"g  c #6A2E2A",
"h  c #6B3525",
"j  c #773624",
"k  c #7D411C",
"l  c #73471A",
"z  c #654424",
"x  c #764123",
"c  c #794137",
"v  c #725336",
"b  c #794C4C",
"n  c #812D03",
"m  c #852B01",
"M  c #833504",
"N  c #843B03",
"B  c #83340A",
"V  c #873D09",
"C  c #843E1D",
"Z  c #893D1B",
"A  c #843D22",
"S  c #893B25",
"D  c #85421D",
"F  c #894519",
"G  c #9F5913",
"H  c #964C0E",
"J  c #A45A0B",
"K  c #AA5D0D",
"L  c #A55907",
"P  c #A45B12",
"I  c #AA5D12",
"U  c #A25715",
"Y  c #B05E13",
"T  c #B05D0D",
"R  c #AC630C",
"E  c #AD6707",
"W  c #B3640E",
"Q  c #B46C0C",
"!  c #B76A0C",
"~  c #AB6313",
"^  c #AD6617",
"/  c #B36413",
"(  c #B96514",
")  c #B46B13",
"_  c #B46418",
"`  c #B46A1B",
"'  c #B96B16",
"]  c #B87216",
"[  c #BA7609",
"{  c #844122",
"}  c #8B4324",
"|  c #8C4D21",
" . c #904624",
".. c #965538",
"X. c #B56F2B",
"o. c #BB7524",
"O. c #BC752B",
"+. c #BC792A",
"@. c #B67526",
"#. c #C37729",
"$. c #C17112",
"%. c #945B45",
"&. c #BE852C",
"*. c #C5880C",
"=. c #CD930D",
"-. c #C59207",
";. c #D1950E",
":. c #D49B0E",
">. c #D99D0D",
",. c #C98A16",
"<. c #CD9412",
"1. c #CA9514",
"2. c #D29312",
"3. c #D59B13",
"4. c #DA9E12",
"5. c #DA9C1A",
"6. c #D6981A",
"7. c #E19F14",
"8. c #DAA30E",
"9. c #D6A50F",
"0. c #D6A312",
"q. c #DBA314",
"w. c #DCA916",
"e. c #DCA51A",
"r. c #DDAA1C",
"t. c #D7A31C",
"y. c #CFA016",
"u. c #E2A40E",
"i. c #E1A316",
"p. c #E2A41B",
"a. c #E2AB1C",
"s. c #E0A817",
"d. c #E3B11E",
"f. c #CD9130",
"g. c #DCAC24",
"h. c #DDAB2B",
"j. c #DCA627",
"k. c #DEB526",
"l. c #DAA637",
"z. c #DCB33C",
"x. c #E1AB21",
"c. c #E1B029",
"v. c #E6B83D",
"b. c #E7AD30",
"n. c #DCC237",
"m. c #EBC336",
"M. c #E6C43B",
"N. c #EBC53C",
"B. c #E6C93D",
"V. c #EBC93E",
"C. c #E4C436",
"Z. c #BE8F41",
"A. c #C78546",
"S. c #DDB441",
"D. c #E4BA43",
"F. c #DFDE48",
"G. c #EBC643",
"H. c #E6CC43",
"J. c #EBCC45",
"K. c #ECCD49",
"L. c #E9C645",
"P. c #F1CA44",
"I. c #F2CC4A",
"U. c #F1C543",
"Y. c #ECD149",
"T. c #E9D747",
"R. c #F4D34E",
"E. c #E6E64C",
"W. c #EAE54C",
"Q. c #E9EB4D",
"!. c #E4E64A",
"~. c #E5E653",
"^. c #E5EC54",
"/. c #EAEC54",
"(. c #EBED5A",
"). c #EAE857",
"_. c #F1EC58",
"`. c #EBF155",
"'. c #EBF15B",
"]. c #E5F256",
"[. c #F3F15E",
"{. c #ECED61",
"}. c #EAF165",
"|. c #EBF26B",
" X c #F6F57F",
".X c #F5F58C",
"XX c #F3F787",
"oX c #F7F795",
"OX c #F3EF81",
"+X c #F4DEB9",
"@X c #F9F9A3",
"#X c #F0E3B6",
"$X c #DBD0C8",
"%X c #DACDC5",
"&X c #E7CDCC",
"*X c #E2D5C9",
"=X c #EADED9",
"-X c #F5DCC8",
";X c #F9F6C9",
":X c #ECE3DD",
">X c #EEE7D7",
",X c #F2E5DE",
"<X c #F6ECD7",
"1X c #FCFCD5",
"2X c #FDFEDB",
"3X c #F7F2D5",
"4X c #F1EBCB",
"5X c #ECDFE0",
"6X c #F2DEE4",
"7X c #ECE5E3",
"8X c #EDEAE5",
"9X c #E9E5E8",
"0X c #F3E5E3",
"qX c #F4ECE5",
"wX c #F3EDEA",
"eX c #F9EDE9",
"rX c #F6EAE8",
"tX c #FEFEE5",
"yX c #FEFEEA",
"uX c #F6F2EA",
"iX c #FDFCF6",
"pX c #F6FFFD",
"aX c #FFFEFB",
"sX c #FEFDFA",
"dX c #FFFBFE",
"fX c #FAFFFF",
"gX c #FDFDFD",
"hX c #FFFFFD",
"jX c #FFFEFC",
"kX c #FFFDFF",
"lX c #FCFFFF",
"zX c #FEFEFE",
"xX c #FEFFFF",
"cX c white",
"vX c #FFFEFF",
"bX c #FDFDFD",
"nX c #FFFFFE",
"mX c #F8F7F9",
"MX c #EFEFF1",
/* pixels */
"cXcXcXcXcXcXcXcXcXcXcXcXcXcXcXcXcXcXcXcXcXcXcXcXcXcXcXcXcXcXcXcXcXpXgXpXcXcXsXgXcXsXcXcXcXcXcXcXcXcXcXcXcXcXcXcXcXcXcXcXcXcXcXcX",
"cXcXcXcXcXcXcXcXcXcXcXcXcXcXcXcXcXcXcXcXcXcXcXcXcXcXcXcXcXcXcXcXiXsXsXcXcXgXcXgXcXcXcXcXgXcXcXcXcXcXcXcXcXcXcXcXcXcXcXcXcXcXcXcX",
"cXcXcXcXcXcXcXcXcXcXcXcXcXcXcXcXcXcXcXcXcXcXcXcXcXcXcXcXcXcXcXcXpXgXcXpXcXpXgXdXcXcXcXcXcXcXcXcXcXcXcXcXcXcXcXcXcXcXcXcXcXcXcXcX",
"cXcXcXcXcXcXcXcXcXcXcXcXcXcXcXcXcXcXcXcXcXcXcXcXcXcXcXcXcXcXcXcXcXcXdXgX0X,X:X8XmXsXcXcXcXcXcXcXcXcXcXcXcXcXcXcXcXcXcXcXcXcXcXcX",
"cXcXcXcXcXcXcXcXcXcXcXcXcXcXcXcXcXcXcXcXcXcXcXcXcXcXcXcXcXcXcXcXpXgXsX>X%.j { ..wXsXcXcXcXgXcXcXcXcXcXcXcXcXcXcXcXcXcXcXcXcXcXcX",
"cXcXcXcXcXcXcXcXcXcXcXcXcXcXcXcXcXcXcXcXcXcXcXcXcXcXcXcXcXcXcXcXdXdXcX>XS 5 6 F 7XsXcXcXcXsXcXsXcXcXcXcXcXcXcXcXcXcXcXcXcXcXcXcX",
"cXcXcXcXcXcXcXcXcXcXcXcXcXcXcXcXcXcXcXcXcXcXcXcXcXcXcXcXcXcXcXcXgXgXcX>XS 7 7 } 7XsXcXcXgXgXcXcXcXcXcXcXcXcXcXcXcXcXcXcXcXcXcXcX",
"cXcXcXcXcXcXcXcXcXcXcXcXcXcXcXcXcXcXcXcXcXcXcXcXcXcXcXcXcXcXcXcXwXrXeX*XA , < A 7XsXcXgXgXcXcXsXcXcXcXcXcXcXcXcXcXcXcXcXcXcXcXcX",
"cXcXcXcXcXcXcXcXcXcXcXcXcXcXcXcXcXcXcXcXcXcXsXcXcXgXcXgXgXcXsXwXA.O.O.` u = - h :XcXsXsXcXgXgXcXcXcXcXcXcXcXcXcXcXcXcXcXcXcXcXcX",
"cXcXcXcXcXcXcXcXcXcXcXcXcXcXcXcXcXcXcXcXcXcXcXcXcXcXcXcXgXcXsXeX@.^ ~ I : = = x 8XpXcXgXgXgXcXgXcXcXcXcXcXcXcXcXcXcXcXcXcXcXcXcX",
"cXcXcXcXcXcXcXcXcXcXcXcXcXcXcXcXgXgXcXcXcXcXgXcXsXmXcXsXgXgXsXqXO._ / Y : - - h 9XgXgXgXcXgXcXcXcXcXcXcXcXcXcXcXcXcXcXcXcXcXcXcX",
"cXcXcXcXcXcXcXcXcXcXcXcXcXcXcXcXcXcXcXcXcXgXcXgXcXcXcXcXcXcXcXqX@.K K L z a z v MXcXcXcXgXcXcXcXcXcXcXcXcXcXcXcXcXcXcXcXcXcXcXcX",
"cXcXcXcXcXcXcXcXcXcXcXcXcXcXcXcXcXcXcXcXcXcXcXcXgXgXgXgXgXgXgX7X .7 7 } &X0X9XrXmXgXcXgXgXcXcXcXcXcXcXcXcXcXcXcXcXcXcXcXcXcXcXcX",
"cXcXcXcXcXcXcXcXcXcXcXcXcXcXcXcXcXgXgXgXcXcXsXcXcXcXcXgXgXcXcX8XD 4 7 C rXdXcXcXcXgXcXgXcXcXcXdXcXcXcXcXcXcXcXcXcXcXcXcXcXcXcXcX",
"cXcXcXcXcXcXcXcXcXcXcXcXcXcXcXcXcXcXcXcXsXsXsXsXsXsXsXsXcXsXsX,X{ , 9 D 7XmXcXsXcXsXcXsXcXcXcXsXcXcXcXcXcXcXcXcXcXcXcXcXcXcXcXcX",
"cXcXcXcXcXcXcXcXcXcXcXcXcXcXcXcXcXcXcXmXuXwXqXeXwXqXeX8X8X7X0X*XD 6 6 i *X7X7X,X7X7X7XMXmXcXcXcXcXcXcXcXcXcXcXcXcXcXcXcXcXcXcXcX",
"cXcXcXcXcXcXcXcXcXgXcXgXdXsXcXpXcXcXcXeXA.] O.O.O.+.+.@.} j { x : ; ; 1 C F { { S D Z ..wXpXdXcXgXsXpXgXcXcXcXcXcXcXcXcXcXcXcXcX",
"cXcXcXcXcXcXcXcXcXgXdXpXcXpXcXgXsXiXmXqXo.W _ ^ ~ / / J M 7 6 4 ; - * - < 7 9 9 7 < 5 C 0XsXdXiXcXsXsXsXsXsXsXsXcXcXcXcXcXcXcXcX",
"cXcXcXcXcXcXcXcXgXsXiXsXcXgXcXsXcXgXgXrX+.~ ( E / ( _ R M 6 4 4 ; * * : , 5 5 < 9 < 8 k 0XpXcXpXgXgXcXcXgXgXcXcXcXcXcXcXcXcXcXcX",
"cXcXcXcXcXcXcXcXcXsXiXpXqXwXwX8X<XyXyX-XZ.@.o.O.Q W ) R 6 < < 9 3 3 : 2 N N V e M V M | &XwX0X7X7X0X,X:XcXpXdXcXcXcXcXcXcXcXcXcX",
"cXcXcXcXcXcXcXcXgXgXcXeXA.O.#.#.l.h.j.L.+X3X3X#Xj.6.5.,.w ; : 3 J J ~ ^ l.v.S.v.6.-.2.,.F k D C D j C %.:XcXsXgXcXcXcXcXcXcXcXcX",
"cXcXcXcXcXcXcXcXcXdXpXwXO.) Q ` :.q.q.c.3XtXtX3Xk.8.s.=.w - = 3 R _ ( ) G.Y.K.G.w.q.i.6.e 7 q n 7 7 5 D ,XsXsXgXcXcXcXcXcXcXcXcX",
"cXcXcXcXcXcXcXcXcXcXiXeX@./ E Q 6.e.w.c.3XyX2X3Xk.0.0.,.w * * : P R / ) D.Y.H.B.e.w.0.<.7 , , , 6 < 4 D 0XgXsXcXcXcXcXcXcXcXcXcX",
"cXcXcXcXcXcXcXcXMXeX<X>Xo._ ) $.t.r.w.v.#XyX1X;XS.j.b.j.l z h h X.O.O.&.D.R.R.J.x.s.r.3.H B B M 7 9 5 Z $X9X>X8XcXcXcXcXcXcXcXcX",
"cXcXcXcXgXcXsXwXf.O.O.O.3.3.;.e.T.(.~.(.oX@XoX@X;X;X3X3X4X>X4X4X3X4X<X;X.X X.XOX^.~.).T.1.1.3.*.B 4 6 q V S D ..7XcXgXgXcXcXcXcX",
"cXcXsXcXgXgXsXqXX.^ _ ` 3.q.q.a.E.(././.XXoXXXoX2XtXtXyXyXtXyXyXtX2XyX1X@XoXoXoX[.(.(.W.g.w.r.<.e 7 6 8 6 9 6 A 7XcXgXcXgXcXcXcX",
"cXcXcXcXgXcXiXeXO./ W ) 3.i.8.r.!.(./.(..XoXoXoX2XtXtXtXyXyXtXtXyXyXyX2X@X.XoX.X/.]./.!.r.8.q.;.N 6 6 9 6 6 6 A 7XsXcXcXcXsXcXcX",
"cXcXsXcXcXcXsXeXo./ W Q :.i.q.r.!.(.'.{.OX.X.XoX1X1X1X1X1X1X1X1X1X1X1X;XoX.X.XOX_._.).W.k.r.r.y.V r M B , 6 7 Z 7XcXcXcXcXcXcXcX",
"cXcXcXcXcXcXsXqXO./ W ) 4.i.q.a.E.(.`.^.}.'.'.'.}.}.}.|.}.}.}.|.|.}.|.|.}.'.}.(.Y.J.J.Y.!.W.W.T.3.=.:.*.N 8 8 Z 7XcXgXcXgXsXcXcX",
"cXdXsXcXgXcXsXwX+./ _ ] 3.4.0.r.~.(.'.(.(.`.`.^./././.(.(.(./.(.`.Q.`./.].(.(.).Y.I.P.I.~.].].W.j.e.q.=.V , 4 F 7XcXgXgXcXcXcXcX",
"cXcXcXcXgXcXsXqXO._ / ) 3.i.q.a.E./.(.(.(.'.'.}./.(./.]././.`.^.(././././.(.`.Q.J.Y.J.I.^./././.r.0.8.;.B 8 6 D 7XcXgXcXcXcXdXcX",
"cXcXsXcXgXcXsXqXo./ W Q :.4.>.a.E.Q././.^.Q.`.Q.^.^.^.(.(.(.'.(.(.(./.).(.(.(.W.V.Y.H.P.`././.^.a.w.s.;.e , 9 A 7XcXgXgXsXcXcXcX",
"cXsXsXcXcXcXsXwXO./ / ' :.q.t.i.B.Y.K.Y.(.`.(.(.T.K.I.Y.).].(._.I.J.V.Y.P.I.Y.T.I.G.H.I.E.'.`.^.H.V.V.z.2 @ # d 7XcXgXgXcXcXcXcX",
"cXsXcXcXcXcXcXqX+.W ~ ' >.q.q.w.N.K.K.K._././.).J.G.P.Y.).`.'.).K.H.J.J.J.J.P.J.K.J.Y.Y.^._.'.~.P.H.V.S.2 @ @ d 7XcXgXcXgXcXcXcX",
"cXcXcXcXgXgXsXqX@.W / ` >.>.t.s.H.H.K.H./.`./.`.Y.P.P.Y./.].].~.Y.H.H.H.J.J.G.G.H.J.H.I.(.(.(.).Y.H.J.z.1 @ @ d 7XcXgXgXgXcXcXsX",
"cXsXcXcXgXcXsXqXX.I I ~ >.8.q.i.N.V.N.V.W./.).).K.J.J.T.T.W.W.W.V.N.N.V.I.I.Y.J.V.N.N.N.'.'.(./.I.H.H.S.1 @ @ s 7XsXgXgXcXcXcXgX",
"cXsXcXcXgXcXcX7XF 7 7 H =.q.e.0.q.w.r.x.B.H.K.H.K.I.P.N.k.r.r.e.g.e.r.g.N.H.G.N.r.r.g.c.E.`.`.~.Y.H.J.z.2 @ @ d 7XcXgXcXgXcXcXcX",
"cXcXsXcXcXgXsX7X} q 4 M <.q.e.4.4.8.4.x.N.K.I.K.H.H.J.v.x.4.4.p.q.>.>.w.N.J.Y.V.i.>.q.p.E.`.`./.Y.Y.Y.S.t @ @ t 7XcXgXgXcXcXcXgX",
"cXcXcXcXgXcXsX7XC 8 4 M =.4.q.q.q.q.q.e.N.Y.I.J.J.H.Y.B.w.0.q.q.w.>.q.e.N.J.J.N.i.q.4.r.Q.]./.).I.H.J.z.2 @ @ d 7XgXgXcXgXcXcXcX",
"cXsXcXsXcXcXsX:XZ 6 4 M ;.w.w.4.w.0.q.i.C.V.N.B.U.G.N.m.e.7.q.0.w.i.p.r.N.G.G.N.r.4.e.r././.(.(.V.B.V.z.2 . @ d 7XgXgXcXgXcXcXsX",
"sXcXgXcXgXcXsX:XD 6 4 m 3.i.q.q.q.4.q.q.e.e.p.r.w.e.e.p.w.0.q.p.N.G.L.N.t.i.i.w.7.0.0.x.E._.`.E.a.r.p.2.t O @ f 9XcXcXgXgXgXcXcX",
"cXcXgXcXgXcXsX7XD < < V -.8.w.>.q.0.q.q.q.q.e.q.8.i.q.4.q.>.0.w.G.J.H.N.r.w.q.w.8.0.w.e.E././.W.r.8.8.-.> X + s 7XcXcXgXcXgXcXcX",
"sXcXcXgXcXcXsX7XZ q 7 M 2.i.e.q.q.q.q.q.q.q.0.4.4.q.4.w.8.8.w.s.G.K.H.G.r.5.4.4.q.7.7.e./.`.'.~.x.w.7.=.1 @ @ y 7XdXcXgXcXgXcXdX",
"cXcXsXcXcXcXcXwX..{ { F ,.2.1.<.4.q.q.q.q.q.0.w.t.r.r.s.0.>.8.q.M.N.N.m.r.i.q.e.p.r.p.g.T.W.~.T.3.*.2.,.h p f c 9XcXcXgXcXgXcXcX",
"cXcXcXcXgXcXcXmX8X0X7X&XH N e H 2.q.q.q.0.>.q.e.m.N.N.v.r.i.q.e.e.r.r.r.3.8.8.q.N.L.H.C.x.r.r.t.w 1 1 h &X7X=XeXmXcXcXcXcXcXcXcX",
"cXcXcXcXgXcXcXcXpXiXsX8Xk 6 % M ;.q.p.q.q.8.0.s.H.Y.J.G.r.q.4.5.i.0.4.q.8.8.w.s.G.L.K.H.i.i.q.=.1   + p 7XgXsXgXcXcXcXgXcXcXgXcX",
"cXcXcXcXcXcXcXcXcXdXgX5X} 7 6 B =.t.q.0.q.q.q.s.G.H.J.G.r.q.q.w.q.q.q.q.0.8.0.p.U.P.G.H.i.q.e.<.$ @ @ g 5XcXsXcXcXcXcXcXcXcXcXcX",
"cXgXgXcXcXcXsXcXgXsXgX8XZ 6 6 M =.5.3.3.q.q.q.r.v.G.B.m.t.i.0.q.q.w.e.p.p.w.q.p.C.H.P.n.i.:.3.,.1   @ f :XgXsXcXgXgXcXcXcXcXgXcX",
"cXcXcXcXcXcXcXcXpXsXgX7XD 5 6 7 / ] _ ] >.q.0.i.i.e.w.w.q.>.0.w.m.V.N.N.N.N.G.v.p.w.t.4.$.! ` ~ & O + g :XgXcXsXcXcXcXcXcXcXcXcX",
"cXcXcXcXcXcXcXcXcXiXcX0XA 9 9 r L W W Q :.q.4.q.e.e.t.q.e.e.p.e.H.Y.J.K.K.K.K.K.e.q.e.4.) W / J # O O p 7XgXdXcXcXcXcXcXcXcXcXcX",
"cXcXcXcXcXcXcXcXgXiXpX,XC 4 6 7 R / ( ) 3.w.4.q.q.q.8.q.4.q.5.w.C.H.J.J.J.H.H.H.w.0.r.;.] W ` K $ O O f 0XcXcXcXcXcXcXcXcXcXcXcX",
"cXcXcXcXcXcXcXcXgXcXcX0X%.Z }  .G P J K ;.4.:.4.4.8.8.w.3.5.5.5.D.U.D.N.V.m.m.C.5.4.4.;.~ J P G g d s b =XcXcXmXcXcXcXcXcXcXcXcX",
"cXcXcXcXcXcXcXcXcXgXpXpX:X,X7X$Xy > $ 8 K ) Q ] 5.q.5.3.[ Q Q E ) ] ) [ 6.j.p.5.] ! / ~ 9 $ # y %X>X:X:XcXgXcXcXcXcXcXcXcXcXcXcX",
"cXcXcXcXcXcXcXcXsXcXcXgXcXcXgX9Xg @   $ P ( ! ! 3.4.t.6.Q / / / / _ R ] 5.i.q.4.! ! W I % X X d 9XcXcXcXpXgXsXpXcXcXcXcXcXcXcXcX",
"cXcXcXcXcXcXcXcXcXgXgXgXsXsXiX>Xg X @ & U / / ) 4.w.8.5.Q / / W W / / Q 5.q.q.3.` / / P $ X X h 6XcXdXdXcXsXcXpXcXcXcXcXcXcXcXcX",
"cXcXcXcXcXcXcXcXsXcXgXcXgXcXcX9Xc d g y U P J ~ ,.;.;.2.E T I K K ~ P E ,.=.<.*.~ J K G y d d c :XpXpXcXgXcXdXgXcXcXcXcXcXcXcXcX",
"cXcXcXcXcXcXcXcXcXcXcXcXcXcXcXcX8X7X7X$Xg $ ; & r B B B B 7 7 0 r 7 e 0 1 # t 1 # # $ g *X7X6X7XcXcXcXcXcXcXcXcXcXcXcXcXcXcXcXcX",
"cXcXcXcXcXcXcXcXcXcXcXcXcXcXcXcXsXdXcX:Xs   o . 4 4 4 6 4 6 6 4 4 5 7 8 + . @ O . o O s :XgXdXpXcXcXcXcXcXcXcXcXcXcXcXcXcXcXcXcX",
"cXcXcXcXcXcXcXcXcXcXcXcXcXcXcXcXpXcXcX:Xg + + % 4 4 5 9 4 5 7 7 6 6 7 < + O O O % O . g :XcXdXpXcXcXcXcXcXcXcXcXcXcXcXcXcXcXcXcX",
"cXcXcXcXcXcXcXcXcXcXcXcXcXcXcXcXpXcXcX=Xb s s g C C D A C C C C { C { j h g g g s p p b =XcXdXgXcXcXcXcXcXcXcXcXcXcXcXcXcXcXcXcX",
"cXcXcXcXcXcXcXcXcXcXcXcXcXcXcXcXcXdXgXcX7X7X7X:X7X7X0X7X7X7X7X7X,X,X,X,X7X7X7X=X7X7X0X7XgXpXgXgXcXcXcXcXcXcXcXcXcXcXcXcXcXcXcXcX",
"cXcXcXcXcXcXcXcXcXcXcXcXcXcXcXcXsXcXcXgXcXgXpXpXcXsXcXcXgXcXcXcXcXcXdXcXcXcXcXcXgXgXgXcXgXgXgXsXcXcXcXcXcXcXcXcXcXcXcXcXcXcXcXcX",
"cXcXcXcXcXcXcXcXcXcXcXcXcXcXcXcXcXcXsXsXdXdXdXdXcXdXcXcXcXcXcXcXgXcXcXgXgXsXsXsXgXdXcXcXcXcXcXcXcXcXcXcXcXcXcXcXcXcXcXcXcXcXcXcX",
"cXcXcXcXcXcXcXcXcXcXcXcXcXcXcXcXcXgXcXcXcXcXcXsXcXcXcXcXgXcXcXgXgXcXcXgXgXgXdXcXsXsXcXcXcXgXgXgXcXcXcXcXcXcXcXcXcXcXcXcXcXcXcXcX"
};
