/* XPM */
static char *_5e0796bacd4461ffe4621057e6d0e10y2WkLXiQ6qHlZUfS[] = {
/* columns rows colors chars-per-pixel */
"64 64 256 2 ",
"   c black",
".  c #010101",
"X  c #020202",
"o  c gray1",
"O  c #040404",
"+  c gray2",
"@  c #060606",
"#  c #070707",
"$  c gray3",
"%  c #090909",
"&  c gray4",
"*  c #0B0B0B",
"=  c #0C0C0C",
"-  c gray5",
";  c #0E0E0E",
":  c gray6",
">  c #101010",
",  c #111111",
"<  c gray7",
"1  c #131313",
"2  c gray8",
"3  c #151515",
"4  c #161616",
"5  c gray9",
"6  c #181818",
"7  c #191919",
"8  c gray10",
"9  c #1B1B1B",
"0  c gray11",
"q  c #1D1D1D",
"w  c #1E1E1E",
"e  c gray12",
"r  c #202020",
"t  c gray13",
"y  c #222222",
"u  c #232323",
"i  c gray14",
"p  c #252525",
"a  c gray15",
"s  c #272727",
"d  c #282828",
"f  c gray16",
"g  c #2A2A2A",
"h  c gray17",
"j  c #2C2C2C",
"k  c #2D2D2D",
"l  c gray18",
"z  c #2F2F2F",
"x  c gray19",
"c  c #313131",
"v  c #323232",
"b  c gray20",
"n  c #343434",
"m  c #353535",
"M  c gray21",
"N  c #373737",
"B  c gray22",
"V  c #393939",
"C  c #3A3A3A",
"Z  c gray23",
"A  c #3C3C3C",
"S  c gray24",
"D  c #3E3E3E",
"F  c #3F3F3F",
"G  c gray25",
"H  c #414141",
"J  c gray26",
"K  c #434343",
"L  c #444444",
"P  c gray27",
"I  c #464646",
"U  c gray28",
"Y  c #484848",
"T  c #494949",
"R  c gray29",
"E  c #4B4B4B",
"W  c #4C4C4C",
"Q  c gray30",
"!  c #4E4E4E",
"~  c gray31",
"^  c #505050",
"/  c #515151",
"(  c gray32",
")  c #535353",
"_  c gray33",
"`  c #555555",
"'  c #565656",
"]  c gray34",
"[  c #585858",
"{  c gray35",
"}  c #5A5A5A",
"|  c #5B5B5B",
" . c gray36",
".. c #5D5D5D",
"X. c gray37",
"o. c #5F5F5F",
"O. c #606060",
"+. c gray38",
"@. c #626262",
"#. c gray39",
"$. c #646464",
"%. c #656565",
"&. c gray40",
"*. c #676767",
"=. c #686868",
"-. c DimGray",
";. c #6A6A6A",
":. c gray42",
">. c #6C6C6C",
",. c #6D6D6D",
"<. c gray43",
"1. c #6F6F6F",
"2. c gray44",
"3. c #717171",
"4. c #727272",
"5. c gray45",
"6. c #747474",
"7. c gray46",
"8. c #767676",
"9. c #777777",
"0. c gray47",
"q. c #797979",
"w. c gray48",
"e. c #7B7B7B",
"r. c #7C7C7C",
"t. c gray49",
"y. c #7E7E7E",
"u. c gray50",
"i. c #808080",
"p. c #818181",
"a. c gray51",
"s. c #838383",
"d. c #848484",
"f. c gray52",
"g. c #868686",
"h. c gray53",
"j. c #888888",
"k. c #898989",
"l. c gray54",
"z. c #8B8B8B",
"x. c gray55",
"c. c #8D8D8D",
"v. c #8E8E8E",
"b. c gray56",
"n. c #909090",
"m. c gray57",
"M. c #929292",
"N. c #939393",
"B. c gray58",
"V. c #959595",
"C. c gray59",
"Z. c #979797",
"A. c #989898",
"S. c gray60",
"D. c #9A9A9A",
"F. c #9B9B9B",
"G. c gray61",
"H. c #9D9D9D",
"J. c gray62",
"K. c #9F9F9F",
"L. c #A0A0A0",
"P. c gray63",
"I. c #A2A2A2",
"U. c gray64",
"Y. c #A4A4A4",
"T. c #A5A5A5",
"R. c gray65",
"E. c #A7A7A7",
"W. c gray66",
"Q. c #A9A9A9",
"!. c #AAAAAA",
"~. c gray67",
"^. c #ACACAC",
"/. c gray68",
"(. c #AEAEAE",
"). c #AFAFAF",
"_. c gray69",
"`. c #B1B1B1",
"'. c #B2B2B2",
"]. c gray70",
"[. c #B4B4B4",
"{. c gray71",
"}. c #B6B6B6",
"|. c #B7B7B7",
" X c gray72",
".X c #B9B9B9",
"XX c gray73",
"oX c #BBBBBB",
"OX c #BCBCBC",
"+X c gray74",
"@X c gray",
"#X c gray75",
"$X c #C0C0C0",
"%X c #C1C1C1",
"&X c gray76",
"*X c #C3C3C3",
"=X c gray77",
"-X c #C5C5C5",
";X c #C6C6C6",
":X c gray78",
">X c #C8C8C8",
",X c gray79",
"<X c #CACACA",
"1X c #CBCBCB",
"2X c gray80",
"3X c #CDCDCD",
"4X c #CECECE",
"5X c gray81",
"6X c #D0D0D0",
"7X c gray82",
"8X c #D2D2D2",
"9X c LightGray",
"0X c gray83",
"qX c #D5D5D5",
"wX c gray84",
"eX c #D7D7D7",
"rX c #D8D8D8",
"tX c gray85",
"yX c #DADADA",
"uX c gray86",
"iX c gainsboro",
"pX c #DDDDDD",
"aX c gray87",
"sX c #DFDFDF",
"dX c gray88",
"fX c #E1E1E1",
"gX c #E2E2E2",
"hX c gray89",
"jX c #E4E4E4",
"kX c gray90",
"lX c #E6E6E6",
"zX c #E7E7E7",
"xX c gray91",
"cX c #E9E9E9",
"vX c #EAEAEA",
"bX c gray92",
"nX c #ECECEC",
"mX c gray93",
"MX c #EEEEEE",
"NX c #EFEFEF",
"BX c gray94",
"VX c #F1F1F1",
"CX c gray95",
"ZX c #F3F3F3",
"AX c #F4F4F4",
"SX c gray96",
"DX c #F6F6F6",
"FX c gray97",
"GX c #F8F8F8",
"HX c #F9F9F9",
"JX c gray98",
"KX c #FBFBFB",
"LX c gray99",
"PX c #FDFDFD",
"IX c #FEFEFE",
"UX c white",
/* pixels */
"&.' [ ' N v b m n c c b m v b m b b n N / ' ] X.k.S.A.N.s o & ; 9.S.S.Z.C.S.Z.N.%.] ] ) A x b c b v v b v v b b b m n N ~ ' ] ' ",
"&.` ` ` Z m n b b b m n v v b n n b c n ~ ' ' } z.Z.V.n.f + % & 0.D.S.Z.Z.S.Z.N.+.` ] ) A c M m b b b b b b b n c v c M ~ [ { [ ",
"#.' [ _ Z b v m m b v b v m b x b m c M ^ { [ | k.A.A.n.f O $ ; 0.A.Z.V.V.Z.V.N.+.[ { ( Z z v c c c c c c c c x N m n B ^ ] [ ` ",
"@.` _ ! D M n M M m N V z l z x B H D J ` | | X.z.Z.A.v.j $ = 1 r.D.A.Z.Z.A.Z.V.%...X.[ I A D S D F F D F F D S N b n C ~ ` { [ ",
"Y N m S R ) ) ( ( ) _ W y = = 7 0.l.h.j.b.n.n.M.C.D.S.B.P j l c t.S.Z.C.C.Z.C.C.N.v.n.m.k.h.l.k.k.l.k.k.k.l.j.g. .` ( / { ' ' ` ",
"L b x N ! [ ] ' _ ' { / w X o 4 p.D.A.A.A.C.C.S.V.C.C.n.T b n V u.D.Z.Z.Z.A.Z.Z.C.N.C.A.C.Z.D.A.Z.A.A.Z.A.S.Z.N.o.] ' ` } ' [ [ ",
"H m b N ~ ] ] { { [ { ( e # + 1 y.F.Z.A.A.Z.A.S.D.F.F.n.T x x M p.F.Z.A.A.A.Z.S.D.S.D.D.Z.Z.S.C.Z.S.S.Z.A.S.Z.M.#.[ ] ' { ` ] ' ",
"P N b N ( { ` ` {  .o.] y - - 8 w.C.b.m.m.M.M.n.v.x.v.l.! A Z F q.m.c.v.b.v.v.n.x.c.b.v.l.k.z.l.c.b.v.c.v.b.x.j.} ! ! ^ ] ` [ ] ",
"+./ ( / ] _ ] } i.n.n.c. .T ! ! O.O.O.o.O.+.O...Y L J G t.x.h.g.` D H K H L J F K J J S s 9 w w C J L G H K G D 0 < 2 6 T [ ' ' ",
"$._ ` ` { ] { | l.Z.C.B.=.' { ] ' ] ] ' ] [ ] ` M x n N i.N.Z.V.Y x n v b x M m x x b x - O $ $ d x b x v b c z - O + * R { [ [ ",
"=.[ [ ] ] _ ` ] h.C.A.N.*.` [ } ] ] ] ] ] [ ] ' S x c N g.D.G.M.Q x c z b z n c B b n v ; # # @ h v n b b b x z - % $ = T _ ) ' ",
"@.` [ { ` _ ] | h.m.m.k.$.( ) ` _ _ _ _ _ _ _ ) S m m F t.n.N.l.W A S D N M C N z k c f 2 = : 3 x m M m m m b n 6 < , w W  .} ] ",
"&.] ] ( F M m B S G G K V B C B V V V V V V V C Q ( ^ ~ O.#.#.#.p.j.h.i.] ^ ! Q w ; * < J ! R U ! ( ( / ) ) _ ] w.a.s.t..._ _ { ",
"&.[ [ _ Z b v m m b b n v b b v b v v b b v b n ! } ] { ` _ ` } g.S.S.B.O.| ' ` 1 $ $ * W { ] ..` ] ` _ ` ` ' } M.A.Z.C.@.} ] ' ",
"&.] ' _ V b c v z x b c z x c b b v v b b v b m ^ ] _ [ [ ] } { k.S.C.M.+.{ _ ^ 4 @ + % T { _ [ [ { [ ] [ ] [ ..z.Z.Z.V.o._ ` ] ",
"o.^ / _ S A Z A A C A C A S Z Z Z Z Z A Z C Z D ~ _ _ _ ` ^ [ ` a.m.m.x.X.( _ ) 8 % * , L ' ( ' ( _ _ ] } }  .+.x.D.C.M.%.' ` { ",
"d 3 6 8 6.g.g.g.g.g.f.f.h.h.g.h.f.j.f.g.h.h.h.a.R B V N S Z M Z K J L H Z B V B l h g x m V V C Z N Z V w.M.c.z.A.C.S.N.o._ ] [ ",
"7 O @ - t.S.F.Z.Z.S.Z.Z.S.A.Z.A.Z.D.Z.A.S.A.A.M.L z n b v v v b v c b b x c b v n v c b n b b n z v m N u.S.V.F.A.V.Z.M.#.[ [ ] ",
"0 $ # ; e.A.D.B.C.A.Z.C.A.Z.C.Z.C.D.Z.A.A.Z.Z.M.T x M n v b M b n v b n b b m b v n n b m v b M n m v N s.H.C.D.C.C.D.M.$.' ] } ",
"r * * w 3.b.N.z.v.m.m.n.m.m.n.m.n.N.m.M.M.M.M.x.I z z g M N M b N b v b v v b c b n b x M b v b n n m S e.M.n.n.M.m.m.j.+.( / _ ",
"` E W K k r y d F L P L P P P I O.$.#.$.$.$.%.O.w : : 3 J ^ ~ ) N v c b b n n v c c b N Q ( _ _ ^ ! ) ~ O.$.%.+.R L K I S A A A ",
"*.[ ] ( 7 @ + # h c b v b b n m ^ ` _ ' ' ' ] ( 3 $ + * U [ _ ] C n v n n n n b m n b n ^ ` ` ( ] ) | ] ` ) [ ^ V b x v v v c c ",
"%.{ ] ( 4 o + # d x v x c c v b ( ] ] [ [ ] [ ) 3 @ + * I [ ' ` C b c b v x c x b v v b ) ] { [ ] _ ] ] [ ] } ( M n b b b c v M ",
"| ^ E R y 6 9 7 m S F S S S S F ( [ ] [ [ ' ] ) r - > 2 Y [ } _ K S A D S A S D b n n b / _ ] ] ] } } ] { _ ] ` J D Z Z G S Z A ",
"i > > 4 1.l.s.h.k.k.l.l.j.k.l.g.o.] ` [ [ ] ] ' ! E Q ~ ( [ ] | r.c.l.z.z.j.x.s.J l m m ^ ' ` } ..@.@.$.[ ' `  .d.l.z.k.z.x.l.l.",
"6 + @ : r.D.C.F.A.A.D.D.A.S.S.B.O.{ ' [ ] ] [ ] } [ { [ ' ] ` { j.A.C.A.A.V.A.b.I c n m / [ ' [ +.#.+.#. .| [  .c.V.A.Z.Z.A.Z.A.",
"7 # $ > r.V.B.S.C.C.Z.A.C.Z.C.M.O.{ ' ] ' ' ] ' ' ` { ' [ [ ]  .z.S.A.S.D.A.D.M.K x c n ^ [ ] [ +.&.%.#.} ' _ | c.V.S.A.A.A.A.S.",
"i - = 0 0.V.M.b.b.c.v.v.c.v.c.l. .' _ ` _ ` ` _ ( ! ! E _ _ / ` a.c.x.x.c.x.x.h.J m M B Q _ ) _ [ X.X. .} [ { O.k.b.M.n.m.n.b.n.",
"} W ~ W  .o.O.@.P H G G F H H F C M M B N N N m 6 < 1 4 x V V A S L K H J H J G m x c x V V B C C Z V D ~ ' ` ] o.@.+.O.+.+.O.+.",
"=.` ' [ ' { [ ( V b c c c v b v m v b m m m m c , # @ % f v c v x n b x c c x c b n n v n c x v b b c M ~ [ [ { ' ' _ ) ' ' ` ] ",
"&.' { } ` _ [ _ V b c v c v b v c z x c c c c l ; @ + $ j n n m b m m v b n v n x b c v n b b n v n v m ! ' ] [ [ { [ ' [ ' ` ] ",
":. . .{ O.| X.} K S Z A A A A Z D A A A Z A S C q 4 3 2 b M m N n M N m M N n N n M v m V Z Z C v c k v ) X...| | ....| } ] ` [ ",
"Z.c.c.v.c.b.c.v.k.j.g.j.k.h.k.j.k.k.j.k.j.j.h.j.d.a.s.s.} ~ ( ^ ^ ) ( ( ) ^ ) ^ N N v M q.k.j.p.g % ; 5 4.c.b.l.x.c.n.j.+.` ` ] ",
"P.S.S.A.C.Z.V.Z.A.S.S.A.A.A.S.Z.C.Z.A.A.A.Z.A.S.S.Z.C.B.*.{ } [ [ { ` ' [ ' [ ) N m m C d.C.F.B.i o + ; e.S.G.S.D.C.Z.N.#.} { ' ",
"L.S.A.C.A.A.Z.S.Z.A.S.Z.V.A.S.C.A.S.S.Z.A.C.C.A.S.A.A.V.%.` ] ] ' [ _ ' ] [ { ` A v x N f.Z.F.c.s & $ ; w.V.Z.Z.A.Z.D.B...` ' ` ",
"J.N.n.c.A.S.C.B.N.x.v.v.c.b.b.v.c.v.c.z.N.N.N.N.n.m.M.v...W ~ / _ | [ } _ ) _ ( C b b D t.b.N.k.p % # 3 5.M.M.c.b.b.n.h.#.{ { { ",
",.+.+.;.l.A.A.V.' L L U I U P U P I I U  .o.+.O.@.@.#...f 3 5 8 T ' ` ( G C V C c b x x K I L K b h z j A H J I K L P P _ _ ` ` ",
"%.] ` X.j.A.Z.n.T z l v x c l c c v b m / ] { ] ' ' ' ~ 7 o + $ U { { ` Z b c n c N n n v v z b M x b m v N b c b n b c ' ` ` ' ",
"%.] `  .l.D.S.N.E x v m v m v n v b n b ( ' [ ' [ ] [ ( 0 @ $ - K ' ` ) V n v M b n b m n n v n c b m m v b v n c n m b _ ' [ { ",
"&.{ ] | h.B.N.c.E b N B m A V C V Z A V [ | ..| ` ` ` ^ 8 O @ * P ] ' ` S Z B Z C V Z N M c n n b m b x C C B Z N m n N / [ { ` ",
"%.[ ' ` %.@.$.@.' ! ~ _ q.j.d.f.f.g.g.h.l.c.z.h.T B A M 1 $ @ & c B C S e.h.s.g.h.s.g.d.G c m v n x m m 4.k.j.i.| ~ ) ! { { ] [ ",
"#.] ] ' ` ) ` _ ' ' [ { j.Z.Z.S.C.C.C.C.Z.A.C.M.I b n c > + O & s b n Z h.F.V.S.D.A.S.m.Y v b c b n V B p.C.A.B.+.] { ) ] ` ` ' ",
"&.] [ { ] { { ] { { [ ] z.S.Z.C.D.S.A.A.A.A.C.N.L v x l , @ O * s b b Z h.J.C.A.V.Z.S.b.T b n n c x x v f.A.S.N.@.' ' ' { | } [ ",
"} ~ ( W } |  .+.|  .X.$.s.b.m.n.b.b.v.b.b.b.v.x.W J S C y 6 2 4 v M B J t.b.c.b.m.M.n.f.U c c x V V V F y.n.m.z.X.' ] [ Q W Q W ",
"p - - 0 9.N.n.x.m.n.v.k.:.o...X.X.X.o.o.O.O.O.O.a.h.k.c.f.j.j.h.o./ / ^ @.#.@.O.X.O.+.O.C x m m Q / / ^ | o.O. .{ } } ~ r ; : > ",
"7 + # , r.A.Z.S.C.C.Z.S.$.' [ } ' ' ' ] ] ] ] { l.Z.Z.D.V.A.C.M.-._ [ ] ` / ' _ ' ' ` _ V v m m ^ ] {  ._ ' } ] ( ' [ ^ 4 o + # ",
"8 O @ , w.S.C.Z.D.D.Z.C.&.' ' ) ] ] ] [ ] ' [ } l.S.Z.S.Z.A.Z.B.*.) ] [ ] ' | } [ { ' ) A b m n ( [ ` [ ' ' [ _ { { ' ) 5 # # o ",
"i ; , 8 4.n.x.c.j.b.v.j.@.( ` _ ) ( ) _ _ ) _ ] k.A.N.Z.C.C.C.Z.$._ ( / _ _ ) / ^ _ ) ^ Z c n m E ' ( / ' ^ _ _ / _ ( _ 7 ; < > ",
"| T Q ! H F J F G J G D S V N V N C B M C M N F d.C.S.V.Z.Z.Z.N.~ m Z N M V V B B C M N m m c n N N B V M V M B V N B C Y ~ Q Q ",
"=.[ { ( Z v c z z c c v b c c n b n v v m b b V d.C.S.C.Z.Z.Z.N.W x n b b b v n v m b m c v x n n v n v b b b n v n M M ~ _ _ [ ",
"#.' { ( A b n m n b b n m n m M m n v n b v v N f.Z.D.A.S.A.Z.B.R x v v m b b N n v l m c m v v M c c z n n m x c n c b ' | { } ",
":.o.o.] K C V B C M n m m n n n v c v N z z v B t.c.v.c.v.c.c.l.T m b c N m v b M n n Z k x z v N Z S F n c b b N D A G ^ ` ` _ ",
"A.x.b.b.k.k.k.j. ._ ( _ ) ( ) / C m v z 3 - * ; N L K H K J K K N c b B E ) ` ` / ) ) E 0 - = 3 5.k.l.a.T m b S t.l.j.d.O.[ [ [ ",
"I.C.C.A.Z.D.Z.B.#.[ ` [ ' ' ] _ V b v x : # # & f n v c b c b n v b b M ! ' ] _ ` [ { / 5 + + > w.S.D.B.Y c l A g.A.Z.C.X.' [ ] ",
"I.Z.Z.A.A.D.C.V.&.[ ` [ ' ] [ _ C v c v - @ @ $ g n v v n c v n v m v N ( [ { [ { ' ' ( 6 $ # ; t.A.Z.N.W n v C j.D.C.B.@.[ { ' ",
"D.M.M.m.b.n.c.c.@.) ^ ` _ ' { _ H V V S 7 2 3 4 l N M M B m M N m m z M ^ ) ) _ ) / _ ) 5 % & 1 7.b.m.x.R v M S i.Z.N.c.#._ ' [ ",
"2.O.@.#.I J K K Z C Z C ^ ] ' } u.j.g.g.s.p.s.r. ./ / _ ^ ^ ) ~ Z x b N M C C Z V C Z N l z h j J L L H ~ ^ ( / O.@.@.X.{ ' ' ] ",
"#.) ' _ B v b n v x v m Q ] [  .c.A.A.D.S.Z.F.C.#.] ` ] _ ' [ ) Z v n n v b v n z b n c n b b B x c v M Q ] } { ` ] [ [ ' ` ' [ ",
"*.[ { ` C v c v m c b N ! ] [ | v.Z.A.Z.S.C.Z.N.%.{ ' ] ' [ { ` C b m b b b v n M m v z N b x c N M b N ! [ [ _ ` ' ' ] ' ' ] [ ",
"%.` ' ( D B N M b z b M E ) ` [ j.c.v.x.B.N.N.n.O.[ ` ' ' ] ] ` S N m v A D C C V V Z F c k c v z c x N E ' ' ` ` ` _ _ _ _ ) ) ",
"*.] { [ ^ ~ ^ ! S M N v C V B V K P U U  .+.@.+.} ] ] ] ] ] ] ' ( ! / [ q.h.h.h.h.j.h.e.f - : : x m b b V A B B V V B V C C C C ",
"$._ ] ] ] ] [ ` N x b z n b b m b c n n ^ ] ] [ ' ] [ [ [ ] ] [ | ] [ o.z.D.A.C.V.Z.D.m.u o % % d v v v v n x b b b v b b b b b ",
"&.] { ' [ ] [ ` S n M v m v v v M v M b / ] _ ' ' ] ' ' ] ] ' ] ` _ ` | z.D.A.Z.A.Z.Z.n.a O & % h M m M b m c M n n n b b v v v ",
"%.' { ` ] ` ] _ Z x b c m b b b b x M b ( [ ` [ [ { ' ` [ [ ' ] ' [ } ..z.A.C.Z.Z.A.Z.z.f   $ & g n v b c n x n v v b b b b b n "
};
