/* XPM */
static char *df4b7c1ff615449fa5ae604d0d732156cSCvjeDdAUzuZwIa[] = {
/* columns rows colors chars-per-pixel */
"64 64 157 2 ",
"   c #47391F",
".  c #473821",
"X  c #4C3C24",
"o  c #4E3F2C",
"O  c #4D4023",
"+  c #4F4428",
"@  c #624C2D",
"#  c #66542D",
"$  c #69552E",
"%  c #6E582F",
"&  c #72562F",
"*  c #624D30",
"=  c #665233",
"-  c #6A5534",
";  c #6E5A35",
":  c #6B5539",
">  c #6F5B39",
",  c #715734",
"<  c #735C36",
"1  c #785F37",
"2  c #735D3A",
"3  c #795F3B",
"4  c #766136",
"5  c #796137",
"6  c #75613B",
"7  c #7A633B",
"8  c #766241",
"9  c #7B6341",
"0  c #80673E",
"q  c #84693D",
"w  c #856A41",
"e  c #8A6F42",
"r  c #957C45",
"t  c #997D46",
"y  c #957B48",
"u  c #9A7F4A",
"i  c #9D8446",
"p  c #97814D",
"a  c #9E844C",
"s  c #9E884E",
"d  c #9E8451",
"f  c #A08347",
"g  c #A1854D",
"h  c #A1884E",
"j  c #A8884D",
"k  c #A38651",
"l  c #A98653",
"z  c #A48852",
"x  c #AC8B56",
"c  c #AD8D59",
"v  c #B28D56",
"b  c #B28F5A",
"n  c #AF9057",
"m  c #AF905B",
"M  c #B39056",
"N  c #B59059",
"B  c #B49159",
"V  c #B59258",
"C  c #B5905B",
"Z  c #B4915B",
"A  c #B6915A",
"S  c #B5925A",
"D  c #B7945A",
"F  c #B1925C",
"G  c #B3925C",
"H  c #B2935D",
"J  c #B5915D",
"K  c #B6915C",
"L  c #B5925C",
"P  c #B4935D",
"I  c #B6935D",
"U  c #B3945D",
"Y  c #B3945E",
"T  c #B7945C",
"R  c #B5945E",
"E  c #B7945E",
"W  c #B6955F",
"Q  c #B5965F",
"!  c #B4925C",
"~  c #B8945A",
"^  c #BB975D",
"/  c #B8955F",
"(  c #B9965E",
")  c #BA945D",
"_  c #BB985E",
"`  c #BD995D",
"'  c #BC985E",
"]  c #BC995F",
"[  c #BD995F",
"{  c #BC995F",
"}  c #AE8F61",
"|  c #B29462",
" . c #B59761",
".. c #B59660",
"X. c #B79660",
"o. c #B79661",
"O. c #B69761",
"+. c #B59562",
"@. c #B59763",
"#. c #B49664",
"$. c #B79764",
"%. c #B69662",
"&. c #BA9560",
"*. c #B99660",
"=. c #B89761",
"-. c #BA9761",
";. c #B89462",
":. c #B89762",
">. c #BA9662",
",. c #BC9760",
"<. c #BC9762",
"1. c #BB9564",
"2. c #BB9765",
"3. c #BA9664",
"4. c #BC9665",
"5. c #BD9766",
"6. c #BB9763",
"7. c #B69862",
"8. c #B79862",
"9. c #B79862",
"0. c #B89960",
"q. c #B99960",
"w. c #BB9860",
"e. c #B99A61",
"r. c #B99862",
"t. c #B89963",
"y. c #B99863",
"u. c #BB9862",
"i. c #BA9963",
"p. c #B99A63",
"a. c #BD9861",
"s. c #BC9961",
"d. c #BD9A60",
"f. c #BE9A60",
"g. c #BE9B61",
"h. c #BD9863",
"j. c #BC9963",
"k. c #BE9962",
"l. c #BD9A62",
"z. c #BE9B63",
"x. c #B99A64",
"c. c #BB9A64",
"v. c #BD9965",
"b. c #BE9964",
"n. c #BD9A64",
"m. c #BC9B65",
"M. c #BE9B65",
"N. c #BC9866",
"B. c #BD9C66",
"V. c #BF9C66",
"C. c #BC9963",
"Z. c #BB9669",
"A. c #BC9669",
"S. c #BE9A68",
"D. c #C19D61",
"F. c #C09B64",
"G. c #C19A64",
/* pixels */
"n.j.i.O.g u l a k g k u k a k u a d k u n.4.n.n.i.*.c.*.F F b c g a l f c.c.j.<.*.n.n.*.n.n.*.n.c.n.*.*.n.n.*.c.*.n.<.W g a a a ",
"j.j.i.O.g g d d a a u g a a k l k a g u 2.c.j.*.n.j.n.c.R N N b g a g g 2.*.j.[ c.n.n.n.n.n.n.G.n.n.n.n.F.n.n.V.c.n.j.W g g a g ",
"<.j.i.R g a g g k k k l a i a a g a f g *.c.n.j.n.<.j.<.N b N v g a g g i.i.n.c.*.c.c.*.n.*.*.n.c.c.n.c.j.*.<.n.*.n.4.W g s s a ",
"j.n.n.W l l l z k a u l r p p p g l l l W *.i.*.*.W O.W F b F v a a a g Y Y W Y O.O.O.W c.c.*.n.O.*.O.O.i.j.<.n.c.c.j.W g a a g ",
"n.n.V.i.W O.O.O.F R | l 7 < < 7 m v F x R N N F g f g g g a g a g a g a z g j g g g g l b N b b g g a j x b N b *.n.<.W g h a a ",
"j.j.n.*.n.n.V.n.b b R k 1 2 2 7 F N R F N F N b a a a s a a s a a a g a a a a a d a u j c / K b d a a l b R K K i.n.j.W g a a g ",
"j.j.n./ n.*.n.*.;.b D k 5 9 2 3 F b R N b F N b a a a g a a s a a a g s a s k a z a a g x R b b d d g k c N F b i.n.j./ g s s a ",
"j.n.V.*.F.c.c.*.b v D l 1 8 6 7 v b b F b N F b k a g d a g g a a a p s a a z a d d k l b N K b d k g l b R R N *.n.j.O.g a a g ",
"j.j.j.j.j.j.<.*.k g k a u u a u z s d z s d a s b b b b b K b l 4 6 > 7 #.z.*.A.j.[ i./ N N D b _ i.Q i.i.i.i.i.n.n.*.i.a k d d ",
"2.2.n.c.n.2.4.1.a g f g g g g l i a a a h a h g N N N N b N N x , 6 2 7 Y [ _ j.4.4.4.<.b F R b 2.4.*.4.<.4.<.n.<.j.i.*.f g a d ",
"[ [ [ [ [ [ ' ' g g f a f a f g a g i i g g g g R N R N N A b x < 8 2 7 | D.] e.[ [ j.[ V M N N _ _ [ [ [ [ j.[ G.G.j.*.u a u g ",
"O.O.7.7.7.7.;.;.d a d d d d d d d d d d a d d d c c c c c b c x 2 2 < 7 c e.7.x.7.7.i.Q m m M F O.7.O.i.7.7.#.2.O.O.O.| k d d k ",
", < < < < < < < ; % < < 1 6 5 4 4 4 4 6 4 4 4 4 7 6 7 0 7 7 0 1 < 3 6 ; 7 7 5 7 1 , < < , , , , , 1 2 , 1 2 < < 0 7 7 7 1 1 5 5 ",
"= = = = = * = = = = # - > 2 2 2 2 2 6 2 6 > 2 2 1 2 2 < ; 2 1 2 ; 2 2 ; 4 6 > 6 = = = - = = - - = = = = = = = = 2 6 6 2 2 2 2 > ",
"$ $ # # # # # # - - = - > 2 2 ; 6 2 2 2 2 > 6 6 2 2 2 2 2 2 2 2 2 6 < 2 6 2 2 2 - # $ $ # % $ $ # # $ $ = # $ # 2 6 6 2 2 6 2 2 ",
"2 > 2 2 > 2 ; 2 , ; ; < 6 7 5 6 6 7 6 7 7 7 7 7 8 7 9 9 6 6 7 6 9 7 7 7 6 5 5 4 > ; > > : = : : , 2 2 2 2 , 2 2 6 7 9 6 4 7 7 7 ",
"1.) / W u a a u k u a a a k a a a a d u *.O.*.j.i.*.<.O.g a i d <.*.;.*.a a p a a i i p 1 2 2 6 l b b c c F F c N F N R *.j.<./ ",
",.1.j.O.f g g a h a a s u k d a d d k f c.O.n.<.i.j.n.*.g a s a <.n.2.n.g j g d a a i p 6 8 8 6 b F W N N N N N N b K K *.4.G.j.",
"<.<.j.W g p a a i i a a l u a k a u f a i.*.n.n.j.n.j.i.j a a z 4.n.n.2.g u a a d z a p 1 > > 2 v b N b b b N b N R b K <.n.<.<.",
"<.*.i.Y j g k a s d p a l j u l l g l l W O.n.*.i.j.j.*.g a a z <.j.*.R j l g j a a g u 0 < 5 5 x b F F b F F F R N N K *.<.*.*.",
"j g l j a u a u 6 4 5 q z M x b b c b c F N / R i.j.<.O.h a a a N R R R x b x c m x F F l c } x g g g g g g g g g g g g j z l h ",
"g a a g g a g a 6 6 2 w | D N R R N R N R b b R i.j.4.*.z a a z R N N N F R R F N N N A N / W R a a s a s a a a a a a a a a a a ",
"u g k p a a a t 4 2 2 7 F N v b F b N R b N N R n.n.n.i.h a a z N N F b N b b b b b R b v v b b a a a a a a i a g a a a a a a a ",
"k l z g z g g g 7 9 7 w W N v ;.K N K K R N R R i.n.<.*.h a a g v b F b F b b b v x x v N D ) N z z g g g h d z z h k k l k j k ",
"*.<.*.4.<.*.n.<.*.<.*./ b N N N j.j.j.j.j.j.[ j.<.<.j._ g a a a a a a a d a a s 6 2 2 1 c.*.<.A.j.j.[ i.j.j.[ j.<.<.<.<.<.<.<.<.",
"<.<.j.j.j.j.<.<.n.G.4.2.R b b ;.G.4.4.4.4.n.4.n.<.4.n.*.l g a k g a a a a a a a 1 2 6 7 *.) j.G.n.4.4.j.4.n.4.4.j.j.j.j.<.j.j.<.",
"j.j.j.j.n.n.i.c.[ [ j.) D M b b ] [ j.f.[ j.[ j.G.V.F.i.j i f g h g g g g a h j 9 2 1 5 2.[ [ *.j.j.j.z.j.G.j.j.G.j.j.j.j.j.j.[ ",
"c.#.2.c.$.$.$.Z.Y W W F F x x b W W W W Y W W R Y F Y m g a a a a a a a a d u a 3 2 2 7 } O.O.| W W W Y W W | ;.2.#.c.#.#.c.#.2.",
"1 5 5 5 1 1 5 1 , 2 2 , , : , , , 2 , 2 , , , 2 2 , < 2 3 1 6 6 4 4 4 4 6 4 5 4 % - - # < & ; ; , , 2 , < 2 , < 1 5 6 5 5 7 1 3 ",
"2 2 2 2 2 2 2 2 = = = - = = - : - = = - = : = = = * = - 2 2 8 2 6 2 6 > 2 2 2 2 - = = - : = = : - = = = = = = = 2 2 2 2 2 2 2 1 ",
"2 2 2 6 2 2 2 6 - - $ - - # % # - - $ = - - - - ; - - $ 2 , 1 < 6 6 2 6 6 6 6 6 , = # = - : - = $ - : $ - $ - = 2 2 6 2 > 2 2 2 ",
"1 2 2 2 1 1 2 2 - - - - : = = : - = - - = - - - = = ; = 8 2 2 1 2 ; < < < < ; < , - - - - - - $ - - - - - - = : 1 1 < 2 6 1 2 1 ",
"b F F F b F F F c b c b c b c b m x M c 4 > , 5 r u r r c F b N m m b x l l l x j l l l l l l l b c b c b c b c N b F x a r a r ",
"j.j.j.n.j.j.j.n.n.S.n.n.S.n.n.n.V.j.j.N.7 8 8 7 d l g l i.n.n.j.z.V.n.i.i.N N D R R N R N D R R S.n.n.S.n.4.n.n.n.j.V.7.l a z z ",
"j.j.j.j.j.j.n.n.n.n.<.G.n.n.j.n.4.<.j.c.< - 2 2 a a a g W i.n.j.i.j.j.*.R N F F R b N N F N M b <.<.4.G.*.n.4.*.c.i.V.Y j p a a ",
"/ i.i.*.*.i.*.i.O.*.O.O.*.*.O.O.<.j.i.O.w 5 7 7 g g k j W 7.<.*.O.O.*.W F F m b c c F U l c m F <.n.n.n./ *.O.;.7.O.7.F z a g d ",
"j g g h g g g h j g g k h z j g g a a z b +.+.;.b b b x R R K R g j l g g g g g g h g p 7 1 1 1 R *.*.O.l g g j j g g k a a a a ",
"a a a a a a a a a a a a a a a a d a p a G.G.<.G.F R R b F b N x a a p a a g a a a a i p 5 2 2 6 W n.c.O.a a i a a a g a g g g a ",
"a g g a a k a g a a a a a a a a g g a a <.' <.n.N b R b N N N b a a g g g g g a a a a u 1 2 ; 1 F S.2.O.g a a g a k a a g a a a ",
"g g g g g g g g d k a d a d k g g g a z K G.4.c.K b b b R N R x g g g u g u g a k a a a 1 2 1 1 K G.<.*.f l a g a a a a g a a g ",
"O.O.O.W x x F x b b c m x m F x ) Q / _ _ c.i.W z s d s z d l d a a d a d a a d c c c c v x l c N R F N F F M v b b c c g a a d ",
"S.4.n.4.;.b ;.K b b N N N N N b n.j.4.<.n.S.4.*.a d a a a g u a g a g a a g g a M N N N N N b K J J b K b b b R b b F m g g g k ",
"j.[ [ [ N N A N F R N R N N N F G.G.G.G.G.G.j.' z d a g g a g g a d g g a a g a N N A ) K K / K K N A A A ) A A N R b m l k f g ",
"W U W F m x x x x x c c c x c c W Y F F F R F F u u u a a d d u d u a a d u a a x x c c x c c x x c x x x x x x x x x l u u u u ",
"8 2 1 2 , ; : - 6 5 4 4 4 6 5 4 , ; , - - , , - % $ - % < < 1 < 1 < 6 4 1 < 6 4 3 1 6 5 5 6 6 4 , : - , - - , - , , % , 1 2 1 1 ",
"2 2 > > - = - - > > 6 > 6 6 > > = = = - = = = - - = - ; > 2 6 2 2 2 > 2 > 6 > 6 2 2 > > 6 6 6 > - : - - = - - - # = # = 2 2 2 > ",
"6 < 1 < % $ - $ 2 2 > 2 > 6 > 2 - - $ $ - $ - $ - = = - > 2 1 2 > 2 2 2 6 6 > > 2 2 2 2 2 6 2 2 # # # # $ # # # - = - - 6 ; < 6 ",
"1 6 2 1 : : , : 1 1 6 1 1 6 1 1 ; - : ; - - - : , - - ; < 6 1 1 2 4 2 4 < 2 4 < 1 2 2 1 2 1 2 < - : : ; : : > , - : ; - 6 < 4 4 ",
";.;.R b / R N R J ;.D 7.R R K F R N F F t a p p N R N F a r i p a u d u 1 1 1 2 r p p t p a u u l x x x F R b F R K N N O.;.R b ",
"n.n.n.4.n.j.j.j.j.j.Q j.j.G.G./ n.n.i.c.g k k z j.n.n.*.l a a d g a d d 6 2 6 2 a z h g h g a g N N N W n.n.n.n.<.n.<.i.n.n.S.G.",
"4.n.n.n.j.j.i.j.[ j._ j.G.1.G.G.j.n.i.7.g a u g *.j.n.*.j a a a a p a p 1 ; , 2 t a a p g a a a b N N / <.G.n.n.i.n.c.i.n.<.4.n.",
"4.*.n.<.W W W W F W m F G.1.2.n.i.n.i.*.l l l z i.j.4.O.g p a a j g g a q 7 0 0 f g l g g a a g c c b F R O.W O.O.*.O.O.c.j.i.4.",
"N N F x j g g a 5 1 1 w ;.V.z.i.j.n.j.n.O.*.O.*.c.n.n.*.l a s z c.*.c.2.b c } c m F F x l g g a f g g a k g a z g g f k c N b b ",
"K R N F g g g i 2 > > w #.z._ i.j.n.*.n.j.n.j.j.*.*.4.O.a a a a 2.*.<.i.K K b A F R R x g u g a a k a s g a a a k a g l F / / N ",
"R b N x g a k p 1 2 > w 7._ _ c.n.n.n.j.n.j.i.j.c.n.n.*.k a a z G.j.j.' K b N N b F F x g g k j a a a a a a a a a a a j v R b b ",
"R b W c g g z p 5 6 2 0 c.j./ 2.*.j.j.<.n.<.j.G.i.n.n.*.g a a z <.j.[ / b b R N b b R v g u k f a k g a z g a z a a a l b N R N ",
"4.4.4.j.4.*.2.*.a a a a g g z z a g h g O.*.j.j.c.<.S.*.z a a z n.4.4.n.4.4.n.4.z s k g b b b b W W _ / W i.c.O.*.n.*.*.i.<.*.n.",
"j.[ j.j.j.j.*.j.a a s a a h s a d g k k 2.4.4.<.j.j.<._ g a g h <.j.' j.j.j.j.j.h g a g F b b b j.n.n.S.<.S.A.G.4.A.n.2.n.A.4.4.",
"[ [ j.j.[ j.[ _ h s a a s a a a a g f g W ] D.] [ [ j./ g a a h [ j.[ j.[ j.[ j.a a g g F N D b G.G.G.<.' ' <.' [ j.[ _ _ _ [ [ ",
"c.c.c.#.c.i.$.$.d d d a d d a a a a g l Y 7.i.7.7.2.c.#.z s d z c.#.c.c.c.#.c.i.z s k z c m F | 2.O.c.*.n.j.n.n.i.x.i.e.x.z.e.i.",
"7 0 7 0 7 w 7 0 0 7 7 0 0 w q q < , < 2 3 3 3 0 w w w w < ; < < 0 9 0 0 0 0 7 w 5 5 5 5 < 1 1 1 @ @ @ @ 2 8 3 < 3 3 1 1 7 w 6 w ",
"2 2 2 < , > 2 2 , < < < 5 6 3 1 = = = = * - @ - 6 7 3 9 = = # = 2 , 2 > 2 , 2 2 2 2 > > # = = * X .   . * = = * = : = : 2 2 , 2 ",
"> 2 2 2 6 2 2 2 1 1 2 3 3 w w 3 - $ = , $ - $ - 9 9 w 9 : - = > 6 6 6 > 2 2 2 2 2 2 2 2 = - - : + O O O - - $ # # # $ $ < 6 2 < ",
"6 1 2 1 6 < 2 2 1 < 2 8 3 9 3 3 : : : , * , - : 9 3 3 9 - - - - < < < 2 4 < 2 < 1 6 , 1 = : : = + X X X : = : : , : = - 2 2 2 2 "
};
